<?xml version="1.0" encoding="UTF-8"?>
<svg id="Layer_1" xmlns="http://www.w3.org/2000/svg" version="1.1" viewBox="0 0 337.02 374.55">
  <!-- Generator: Adobe Illustrator 30.4.0, SVG Export Plug-In . SVG Version: 2.1.4 Build 226)  -->
  <defs>
    <style>
      .st0 {
        fill: #eb3539;
      }

      .st1 {
        fill: #f0f0f0;
      }

      .st2 {
        fill: #f47a3c;
      }

      .st3 {
        fill: #ffbf40;
      }

      .st4 {
        fill: #202f40;
      }
    </style>
  </defs>
  <path class="st4" d="M245.43,330.63l36.35-20.99c3.53-2.11,7.11-4.15,10.69-6.17l.09-.05h0c6.44-3.64,12.9-7.25,19.12-11.26,9.39-6.46,15.78-17.15,16.9-28.52.61-6.32.32-12.69.35-19.03,0-36.71-.01-73.42,0-110.12-.04-6.34.26-12.7-.31-19.02-1.11-11.92-7.83-23.26-17.96-29.7-10.2-6.29-20.76-11.98-31.11-18.03h0s-43.15-24.91-43.15-24.91c-.55-.24-1.09-.51-1.61-.84-13.8-8.15-27.74-16.03-41.58-24.11-4.08-2.37-8.15-4.83-12.61-6.42-8.25-2.95-17.48-3.02-25.77-.19-4.55,1.5-8.75,3.91-12.87,6.32-13.8,8.14-27.8,15.93-41.55,24.14-.7.46-1.43.84-2.17,1.15l-28.67,16.51c.09.03.19.05.28.08l-.39-.02-9.41,5.42h0c-11.96,7.15-24.3,13.68-36.16,21.02-9.58,6.16-16.15,16.69-17.61,27.98-.62,5.08-.4,10.21-.42,15.32.03,43.43-.02,86.87.02,130.32-.01,9.96,3.92,19.86,10.78,27.1,6.29,6.88,15.09,10.47,22.88,15.27,3.19,1.95,6.47,3.75,9.73,5.59h0s.09.05.09.05c1.25.71,2.5,1.42,3.73,2.16l36.95,21.35c2.69,1.38,5.23,3.02,7.86,4.53,13.19,7.66,26.42,15.25,39.62,22.88,4.51,2.57,8.91,5.39,13.64,7.54,8.05,3.65,17.32,4.32,25.89,2.26,5.24-1.25,10.02-3.83,14.62-6.55,15.39-9,30.9-17.78,46.28-26.78,2.44-1.39,4.88-3.06,7.47-4.27Z"/>
  <path class="st4" d="M157.17,54c1.87-3.91,4.95-8.14,9.64-8.51,4-.41,7.23,2.63,9.22,5.76,3.96,6.32,5.09,13.97,5.11,21.31-.04,11.34.03,22.69-.1,34.03.19,1.51-.32,3.54,1.12,4.58,3.08,2.34,6.63,3.95,9.94,5.94,17.14,9.89,34.32,19.72,51.43,29.66.25,5.3.23,10.62,0,15.93-6.36-1.18-12.68-2.58-18.98-4.04-6.51-1.54-13.06-2.88-19.59-4.32-6.07-1.45-12.12-3.01-18.3-3.9-.52,9.02-.34,18.07-.12,27.11.35,15.2,5.73,30.17,14.84,42.32,11.58,15.59,29.41,26.4,48.62,29.35,8.5,1.36,17.14.92,25.72.97,10.06.05,20.13-.11,30.19.17.49,6.35-.35,12.99-3.96,18.39-2.77,4.99-8.08,7.5-12.8,10.23-34.46,19.88-68.92,39.75-103.36,59.64-3.86,2.2-7.63,4.69-11.92,5.99-6.51,1.89-13.68.68-19.45-2.81-35.27-20.4-70.59-40.74-105.88-61.11-5.75-3.32-12.14-6.3-15.88-12.05-3.66-5.32-4.24-11.99-3.9-18.26,14.98-.29,29.97-.08,44.96-.18,12.8-.17,25.6-3.49,36.69-9.94,19.16-10.84,33.1-30.51,36.74-52.25,1.99-12.39,1.04-24.99,1.23-37.47-6.41.76-12.66,2.4-18.93,3.89-7.26,1.64-14.57,3.11-21.83,4.74-5.48,1.31-10.97,2.61-16.52,3.54-.1-5.27-.11-10.55.03-15.82,20.62-12.1,41.43-23.89,62.12-35.87.49-8.49.08-16.99.21-25.48.07-10.56-.89-21.69,3.71-31.54Z"/>
  <path class="st2" d="M107.62,159.17c7.26-1.63,14.57-3.1,21.83-4.74-.3,8.89.33,17.8-.29,26.69-1.97,18.88-14.3,36.27-31.41,44.48-9.22,4.77-19.78,6.02-30.03,5.99-12.97-.05-25.95-.01-38.92-.05-.16-6.37-.16-12.74,0-19.11,10.3-.21,20.61-.09,30.92-.11,5.82-.02,11.67.26,17.48-.35,7.42-.76,14.5-3.98,20.2-8.76,6.92-5.9,11.37-14.51,12.53-23.5.84-6.5.63-13.08.2-19.61-.63-.23-1.89-.7-2.51-.93Z"/>
  <path class="st2" d="M204.96,154.34c6.53,1.44,13.08,2.78,19.59,4.32.1,6.95-.34,13.91.28,20.85,1.25,13.26,10.8,25.01,23,29.97,7.89,3.19,16.56,2.76,24.89,2.74,11.05.02,22.11-.18,33.16.17.31,6.38.31,12.77,0,19.15-12.72.05-25.44-.01-38.16.05-7.49.05-15.07-.48-22.27-2.69-19.88-5.75-35.57-23.37-39.36-43.66-1.85-10.2-1.02-20.6-1.13-30.9Z"/>
  <path class="st0" d="M186.66,150.44c6.18.89,12.23,2.45,18.3,3.9.11,10.3-.72,20.7,1.13,30.9,3.79,20.29,19.48,37.91,39.36,43.66,7.2,2.21,14.78,2.74,22.27,2.69,12.72-.06,25.44,0,38.16-.05.28,6.27.23,12.55.03,18.82-10.06-.28-20.13-.12-30.19-.17-8.58-.05-17.22.39-25.72-.97-19.21-2.95-37.04-13.76-48.62-29.35-9.11-12.15-14.49-27.12-14.84-42.32-.22-9.04-.4-18.09.12-27.11Z"/>
  <path class="st0" d="M129.45,154.43c6.27-1.49,12.52-3.13,18.93-3.89-.19,12.48.76,25.08-1.23,37.47-3.64,21.74-17.58,41.41-36.74,52.25-11.09,6.45-23.89,9.77-36.69,9.94-14.99.1-29.98-.11-44.96.18-.06-6.28-.13-12.56.04-18.84,12.97.04,25.95,0,38.92.05,10.25.03,20.81-1.22,30.03-5.99,17.11-8.21,29.44-25.6,31.41-44.48.62-8.89-.01-17.8.29-26.69Z"/>
  <path class="st3" d="M91.1,162.71c5.55-.93,11.04-2.23,16.52-3.54.62.23,1.88.7,2.51.93.43,6.53.64,13.11-.2,19.61-1.16,8.99-5.61,17.6-12.53,23.5-5.7,4.78-12.78,8-20.2,8.76-5.81.61-11.66.33-17.48.35-10.31.02-20.62-.1-30.92.11-.15-6.35-.16-12.7,0-19.05,9.96-.44,19.94-.07,29.92-.19,5.98-.12,12.02.48,17.95-.55,7.31-1.29,13.4-7.71,14.17-15.11.5-4.92.11-9.88.26-14.82Z"/>
  <path class="st3" d="M224.55,158.66c6.3,1.46,12.62,2.86,18.98,4.04.17,4.93-.17,9.87.31,14.78.76,7.04,6.18,13.34,13.11,14.94,5.82,1.32,11.85.65,17.77.77,10.36.12,20.74-.28,31.1.21.39,6.32.34,12.66.06,18.99-11.05-.35-22.11-.15-33.16-.17-8.33.02-17,.45-24.89-2.74-12.2-4.96-21.75-16.71-23-29.97-.62-6.94-.18-13.9-.28-20.85Z"/>
  <path class="st1" d="M241.09,322.78l34.33-19.82c3.34-1.99,6.71-3.92,10.1-5.83l.08-.05h0c6.09-3.44,12.18-6.85,18.06-10.64,8.87-6.1,14.9-16.2,15.96-26.93.58-5.97.3-11.98.33-17.97,0-34.67-.01-69.34,0-104-.04-5.99.25-11.99-.29-17.96-1.05-11.26-7.39-21.97-16.96-28.05-9.64-5.94-19.61-11.32-29.38-17.03h0s-40.75-23.53-40.75-23.53c-.52-.23-1.03-.49-1.52-.8-13.03-7.7-26.2-15.14-39.27-22.77-3.85-2.24-7.7-4.56-11.91-6.06-7.79-2.79-16.51-2.85-24.34-.18-4.3,1.42-8.26,3.69-12.15,5.97-13.03,7.69-26.25,15.04-39.24,22.8-.67.44-1.35.79-2.05,1.09l-27.08,15.59c.09.03.18.05.26.08l-.36-.02-8.89,5.12h0c-11.29,6.76-22.95,12.92-34.15,19.85-9.05,5.82-15.25,15.76-16.63,26.42-.59,4.8-.38,9.64-.4,14.47.03,41.02-.02,82.04.02,123.07-.01,9.41,3.7,18.76,10.18,25.59,5.94,6.5,14.25,9.89,21.61,14.42,3.01,1.85,6.11,3.54,9.19,5.28h0s.08.05.08.05c1.18.67,2.36,1.35,3.52,2.04l34.9,20.16c2.54,1.3,4.94,2.86,7.42,4.28,12.46,7.23,24.95,14.4,37.42,21.61,4.26,2.43,8.41,5.09,12.88,7.12,7.6,3.45,16.36,4.08,24.45,2.13,4.95-1.18,9.46-3.62,13.81-6.19,14.53-8.5,29.18-16.79,43.71-25.29,2.31-1.31,4.61-2.89,7.05-4.03ZM185.79,338.62c-3.86,2.2-7.63,4.69-11.92,5.99-6.51,1.89-13.68.68-19.45-2.81-35.27-20.4-70.59-40.74-105.88-61.11-5.75-3.32-12.14-6.3-15.88-12.05-3.66-5.32-4.24-11.99-3.9-18.26-.06-6.28-.13-12.56.04-18.84-.16-6.37-.16-12.74,0-19.11-.15-6.35-.16-12.7,0-19.05,9.96-.44,19.94-.07,29.92-.19,5.98-.12,12.02.48,17.95-.55,7.31-1.29,13.4-7.71,14.17-15.11.5-4.92.11-9.88.26-14.82-.1-5.27-.11-10.55.03-15.82,20.62-12.1,41.43-23.89,62.12-35.87.49-8.49.08-16.99.21-25.48.07-10.56-.89-21.69,3.71-31.54,1.87-3.91,4.95-8.14,9.64-8.51,4-.41,7.23,2.63,9.22,5.76,3.96,6.32,5.09,13.97,5.11,21.31-.04,11.34.03,22.69-.1,34.03.19,1.51-.32,3.54,1.12,4.58,3.08,2.34,6.63,3.95,9.94,5.94,17.14,9.89,34.32,19.72,51.43,29.66.25,5.3.23,10.62,0,15.93.17,4.93-.17,9.87.31,14.78.76,7.04,6.18,13.34,13.11,14.94,5.82,1.32,11.85.65,17.77.77,10.36.12,20.74-.28,31.1.21.39,6.32.34,12.66.06,18.99.31,6.38.31,12.77,0,19.15.28,6.27.23,12.55.03,18.82.49,6.35-.35,12.99-3.96,18.39-2.77,4.99-8.08,7.5-12.8,10.23-34.46,19.88-68.92,39.75-103.36,59.64Z"/>
</svg>